<mxfile host="Electron" modified="2023-11-16T08:14:31.211Z" agent="Mozilla/5.0 (Windows NT 10.0; Win64; x64) AppleWebKit/537.36 (KHTML, like Gecko) draw.io/22.0.2 Chrome/114.0.5735.289 Electron/25.8.4 Safari/537.36" etag="ajM5HHTrWNz6wRPuMZTK" version="22.0.2" type="device">
  <diagram name="페이지-1" id="bi0AvVPorlGseWfOQOvh">
    <mxGraphModel dx="1100" dy="767" grid="1" gridSize="10" guides="1" tooltips="1" connect="1" arrows="1" fold="1" page="1" pageScale="1" pageWidth="827" pageHeight="1169" math="0" shadow="0">
      <root>
        <mxCell id="0" />
        <mxCell id="1" parent="0" />
        <mxCell id="lNLNY1qSTsWNreSrV5Qx-1" value="" style="sketch=0;aspect=fixed;pointerEvents=1;shadow=0;dashed=0;html=1;strokeColor=none;labelPosition=center;verticalLabelPosition=bottom;verticalAlign=top;align=center;fillColor=#00188D;shape=mxgraph.mscae.enterprise.internet" vertex="1" parent="1">
          <mxGeometry x="90" y="40" width="129.03" height="80" as="geometry" />
        </mxCell>
        <mxCell id="lNLNY1qSTsWNreSrV5Qx-2" value="&lt;font color=&quot;#6666ff&quot; style=&quot;font-size: 14px;&quot;&gt;NPM&lt;/font&gt;&lt;br style=&quot;font-size: 14px;&quot;&gt;패키지 저장소" style="text;html=1;strokeColor=none;fillColor=none;align=center;verticalAlign=middle;whiteSpace=wrap;rounded=0;fontSize=14;" vertex="1" parent="1">
          <mxGeometry x="93.55" y="130" width="125.48" height="30" as="geometry" />
        </mxCell>
        <mxCell id="lNLNY1qSTsWNreSrV5Qx-3" value="" style="endArrow=classic;html=1;rounded=0;strokeWidth=4;" edge="1" parent="1">
          <mxGeometry width="50" height="50" relative="1" as="geometry">
            <mxPoint x="160" y="170" as="sourcePoint" />
            <mxPoint x="160" y="220" as="targetPoint" />
          </mxGeometry>
        </mxCell>
        <mxCell id="lNLNY1qSTsWNreSrV5Qx-5" value="&lt;font color=&quot;#6666ff&quot; style=&quot;font-size: 14px;&quot;&gt;Package.json&lt;/font&gt;&lt;br style=&quot;font-size: 14px;&quot;&gt;설계 문서 역할" style="text;html=1;strokeColor=none;fillColor=none;align=center;verticalAlign=middle;whiteSpace=wrap;rounded=0;fontSize=14;" vertex="1" parent="1">
          <mxGeometry x="93.55" y="370" width="125.48" height="30" as="geometry" />
        </mxCell>
        <mxCell id="lNLNY1qSTsWNreSrV5Qx-6" value="" style="endArrow=classic;html=1;rounded=0;strokeWidth=4;" edge="1" parent="1">
          <mxGeometry width="50" height="50" relative="1" as="geometry">
            <mxPoint x="270" y="280" as="sourcePoint" />
            <mxPoint x="480" y="280" as="targetPoint" />
          </mxGeometry>
        </mxCell>
        <mxCell id="lNLNY1qSTsWNreSrV5Qx-7" value="실제 패키지 전개" style="text;html=1;strokeColor=none;fillColor=none;align=center;verticalAlign=middle;whiteSpace=wrap;rounded=0;" vertex="1" parent="1">
          <mxGeometry x="310" y="286" width="125.48" height="30" as="geometry" />
        </mxCell>
        <mxCell id="lNLNY1qSTsWNreSrV5Qx-8" value="" style="sketch=0;pointerEvents=1;shadow=0;dashed=0;html=1;strokeColor=none;fillColor=#505050;labelPosition=center;verticalLabelPosition=bottom;verticalAlign=top;outlineConnect=0;align=center;shape=mxgraph.office.concepts.document;" vertex="1" parent="1">
          <mxGeometry x="116.29000000000002" y="251" width="80" height="100" as="geometry" />
        </mxCell>
        <mxCell id="lNLNY1qSTsWNreSrV5Qx-9" value="" style="sketch=0;pointerEvents=1;shadow=0;dashed=0;html=1;strokeColor=none;fillColor=#505050;labelPosition=center;verticalLabelPosition=bottom;verticalAlign=top;outlineConnect=0;align=center;shape=mxgraph.office.concepts.folder;" vertex="1" parent="1">
          <mxGeometry x="520" y="230" width="130" height="110" as="geometry" />
        </mxCell>
        <mxCell id="lNLNY1qSTsWNreSrV5Qx-10" value="&lt;font color=&quot;#6666ff&quot; style=&quot;font-size: 14px;&quot;&gt;node_modules&lt;br style=&quot;font-size: 14px;&quot;&gt;&lt;/font&gt;&lt;br style=&quot;font-size: 14px;&quot;&gt;각 모듈의 실체&lt;br style=&quot;font-size: 14px;&quot;&gt;js 파일 등&lt;br style=&quot;font-size: 14px;&quot;&gt;크기가 매우 큼&lt;br style=&quot;font-size: 14px;&quot;&gt;깃허브에 업로드X" style="text;html=1;strokeColor=none;fillColor=none;align=center;verticalAlign=middle;whiteSpace=wrap;rounded=0;fontSize=14;" vertex="1" parent="1">
          <mxGeometry x="522.26" y="351" width="125.48" height="90" as="geometry" />
        </mxCell>
        <mxCell id="lNLNY1qSTsWNreSrV5Qx-11" value="" style="sketch=0;pointerEvents=1;shadow=0;dashed=0;html=1;strokeColor=none;fillColor=#505050;labelPosition=center;verticalLabelPosition=bottom;verticalAlign=top;outlineConnect=0;align=center;shape=mxgraph.office.concepts.document;" vertex="1" parent="1">
          <mxGeometry x="332.74" y="360" width="80" height="100" as="geometry" />
        </mxCell>
        <mxCell id="lNLNY1qSTsWNreSrV5Qx-12" value="" style="endArrow=classic;html=1;rounded=0;strokeWidth=4;" edge="1" parent="1">
          <mxGeometry width="50" height="50" relative="1" as="geometry">
            <mxPoint x="240" y="350" as="sourcePoint" />
            <mxPoint x="320" y="410" as="targetPoint" />
          </mxGeometry>
        </mxCell>
        <mxCell id="lNLNY1qSTsWNreSrV5Qx-13" value="" style="endArrow=classic;html=1;rounded=0;strokeWidth=4;" edge="1" parent="1">
          <mxGeometry width="50" height="50" relative="1" as="geometry">
            <mxPoint x="430" y="400" as="sourcePoint" />
            <mxPoint x="500" y="350" as="targetPoint" />
          </mxGeometry>
        </mxCell>
        <mxCell id="lNLNY1qSTsWNreSrV5Qx-14" value="&lt;font color=&quot;#6666ff&quot; style=&quot;font-size: 14px;&quot;&gt;package-lock.json&lt;br&gt;또는&lt;br&gt;yarn.lock&lt;br&gt;&lt;/font&gt;&lt;br style=&quot;font-size: 14px;&quot;&gt;자동 생성됨&lt;br&gt;의존 관계, 버전 해결" style="text;html=1;strokeColor=none;fillColor=none;align=center;verticalAlign=middle;whiteSpace=wrap;rounded=0;fontSize=14;" vertex="1" parent="1">
          <mxGeometry x="302.74" y="470" width="140" height="90" as="geometry" />
        </mxCell>
      </root>
    </mxGraphModel>
  </diagram>
</mxfile>
